<?xml version="1.0" encoding="UTF-8" standalone="no"?>
<!-- Created with Inkscape (http://www.inkscape.org/) -->

<svg
   xmlns:svg="http://www.w3.org/2000/svg"
   xmlns="http://www.w3.org/2000/svg"
   version="1.1"
   width="744.09448"
   height="1052.3622"
   id="svg2">
  <defs
     id="defs4" />
  <g
     id="layer1">
    <path
       d="m 283.51705,59.173295 c -13.85,0 -25,11.15 -25,25 l 0,132.406255 -132.375,0 c -13.85,0 -25,11.15 -25,25 l 0,26.125 c 0,13.85 11.15,25 25,25 l 132.375,0 0,132.375 c 0,13.85 11.15,25 25,25 l 26.15625,0 c 13.85,0 25,-11.15 25,-25 l 0,-132.375 132.375,0 c 13.85,0 25,-11.15 25,-25 l 0,-26.125 c 0,-13.85 -11.15,-25 -25,-25 l -132.375,0 0,-132.406255 c 0,-13.85 -11.15,-25 -25,-25 l -26.15625,0 z"
       id="rect2818"
       style="fill:#83dc83;fill-opacity:1;fill-rule:evenodd;stroke:#38a832;stroke-width:3.20000005;stroke-miterlimit:4;stroke-opacity:1;stroke-dasharray:none" />
  </g>
</svg>
